# xmcd CD database file
#
# Track frame offsets:
#	150
#	23085
#	49777
#	76674
#	91774
#	113774
#	132447
#	149689
#	162068
#	176754
#	190990
#	208442
#	236857
#
# Disc length: 3430 seconds
#
# Revision: 0
# Processed by: cddbd v1.5.2PL0 Copyright (c) Steve Scherf et al.
# Submitted via: CDex 1.70beta2
#
DISCID=b40d640d
DTITLE=Various Artist - Shades of Blue - Earth Born
DYEAR=2000
DGENRE=Blues
TTITLE0=I Been Missin' You - Syl Johnson
TTITLE1=The Things That I Used to Do - Buddy Guy
TTITLE2=Cold Cold Feelin' - Albert Collins
TTITLE3=Chicago Bound - Jimmie Rogers
TTITLE4=It Haven't Been Easy - Miss Lavelle White
TTITLE5=Can I Get a Witness - Snooky Pryor
TTITLE6=Double Trouble - Otis Rush
TTITLE7=That Ain't the Way to do it - Pinetop Perkins
TTITLE8=I'm a Good Woman - Barbara Lynn
TTITLE9=Straighten Up Baby - James Cotton
TTITLE10=Same Thing Could Happen to You - Lazy Lester
TTITLE11=High Jack - "Guitar" Murphy
TTITLE12=Sweet Home Chicago - Luther Taylor
EXTD=YEAR: 2000
EXTT0=
EXTT1=
EXTT2=
EXTT3=
EXTT4=
EXTT5=
EXTT6=
EXTT7=
EXTT8=
EXTT9=
EXTT10=
EXTT11=
EXTT12=
PLAYORDER=
